<svg width="52" height="52" fill="none" xmlns="http://www.w3.org/2000/svg"><path d="M19.5 41.166c-9.317 3.034-9.317-5.416-13-6.5m26 10.834v-7.584c0-2.166.217-3.033-1.083-4.333 6.066-.65 11.916-3.033 11.916-13a9.966 9.966 0 00-2.816-6.933 9.1 9.1 0 00-.217-6.934s-2.383-.65-7.583 2.817a26.65 26.65 0 00-13.434 0c-5.2-3.467-7.583-2.817-7.583-2.817a9.1 9.1 0 00-.217 6.934 9.967 9.967 0 00-2.816 6.933c0 9.967 5.85 12.35 11.916 13-1.3 1.3-1.3 2.6-1.083 4.333V45.5" stroke="#fff" stroke-width="3" stroke-linecap="round" stroke-linejoin="round"/></svg>