<svg width="20" height="20" fill="none" xmlns="http://www.w3.org/2000/svg"><path fill-rule="evenodd" clip-rule="evenodd" d="M3.333 5.5v9.023a8.335 8.335 0 015.834 0V5.5a6.667 6.667 0 00-5.834 0zm7.5 0v9.023a8.335 8.335 0 015.834 0V5.5a6.666 6.666 0 00-5.834 0zM10 4.055a8.333 8.333 0 00-7.917.225.833.833 0 00-.416.721v10.834a.833.833 0 001.25.721 6.667 6.667 0 016.666 0 .834.834 0 00.834 0 6.667 6.667 0 016.666 0 .834.834 0 001.25-.721V5a.833.833 0 00-.416-.721A8.333 8.333 0 0010 4.054z" fill="#205BF1"/></svg>