<svg width="20" height="20" fill="none" xmlns="http://www.w3.org/2000/svg"><path fill-rule="evenodd" clip-rule="evenodd" d="M2.988 2.988A1.667 1.667 0 014.167 2.5H12.5a1.667 1.667 0 011.667 1.667h1.666A1.666 1.666 0 0117.5 5.833V15a2.5 2.5 0 01-2.5 2.5H5.833A3.333 3.333 0 012.5 14.167v-10c0-.442.176-.866.488-1.179zm9.655 12.845h-6.81a1.667 1.667 0 01-1.666-1.666v-10H12.5V15c0 .287.05.568.143.833zm1.524-10V15a.834.834 0 001.666 0V5.833h-1.666zm-8.334.834c0-.46.373-.834.834-.834H10A.833.833 0 0110 7.5H6.667a.833.833 0 01-.834-.833zm0 3.333c0-.46.373-.833.834-.833H10a.833.833 0 010 1.666H6.667A.833.833 0 015.833 10zm0 3.333c0-.46.373-.833.834-.833H10a.833.833 0 010 1.667H6.667a.833.833 0 01-.834-.834z" fill="#205BF1"/></svg>