<svg width="20" height="20" fill="none" xmlns="http://www.w3.org/2000/svg"><path fill-rule="evenodd" clip-rule="evenodd" d="M4.167 5.833a.833.833 0 00-.834.833v6.667c0 .46.373.833.834.833h6.666c.46 0 .834-.373.834-.833V6.666a.833.833 0 00-.834-.833H4.167zm9.166 1.152v-.319a2.5 2.5 0 00-2.5-2.5H4.167a2.5 2.5 0 00-2.5 2.5v6.667a2.5 2.5 0 002.5 2.5h6.666a2.5 2.5 0 002.5-2.5v-.319l2.588 1.294a1.667 1.667 0 002.412-1.49V7.181a1.67 1.67 0 00-1.591-1.664 1.667 1.667 0 00-.82.174l-2.589 1.294zm0 1.863v2.303l3.334 1.666V7.182l-3.334 1.666z" fill="#205BF1"/></svg>