<svg width="309" height="284" fill="none" xmlns="http://www.w3.org/2000/svg"><path d="M134.508 180.464c-7.068 0-13.711-4.401-18.23-12.095-3.959-6.722-6.143-15.539-6.143-24.796 0-9.272 2.184-18.074 6.143-24.797 4.519-7.678 11.178-12.094 18.23-12.094 7.068 0 13.711 4.4 18.23 12.094 3.959 6.723 6.143 15.54 6.143 24.797 0 9.257-2.184 18.074-6.143 24.796-4.519 7.679-11.162 12.095-18.23 12.095z" fill="#1F2025" stroke="#fff" stroke-width="3" stroke-miterlimit="10"/><path d="M134.508 173.999c9.901 0 17.927-13.622 17.927-30.426s-8.026-30.427-17.927-30.427c-9.9 0-17.927 13.623-17.927 30.427 0 16.804 8.027 30.426 17.927 30.426z" stroke="#fff" stroke-width="3" stroke-miterlimit="10"/><path d="M135.979 106.742l105.348 8.908s10.177 7.148 10.177 27.923-10.177 27.907-10.177 27.907l-105.348 8.923" stroke="#fff" stroke-width="3" stroke-miterlimit="10"/><path d="M244.163 118.519l46.804 3.96s7.69 5.388 7.69 21.094c0 15.706-7.69 21.078-7.69 21.078l-46.804 3.961" stroke="#fff" stroke-width="3" stroke-miterlimit="10"/><path d="M296.458 130.567l6.415.547s4.535 3.187 4.535 12.459-4.535 12.459-4.535 12.459l-6.415.546" stroke="#fff" stroke-width="3" stroke-miterlimit="10"/><path d="M81.41 180.464c-7.068 0-13.711-4.401-18.23-12.095-3.96-6.722-6.143-15.539-6.143-24.796 0-9.272 2.184-18.074 6.142-24.797 4.52-7.678 11.178-12.094 18.23-12.094 7.068 0 13.711 4.4 18.231 12.094 3.959 6.723 6.143 15.54 6.143 24.797 0 9.257-2.184 18.074-6.143 24.796-4.535 7.679-11.178 12.095-18.23 12.095z" fill="#1F2025" stroke="#fff" stroke-width="3" stroke-miterlimit="10"/><path d="M81.41 173.999c9.9 0 17.927-13.622 17.927-30.426s-8.026-30.427-17.927-30.427-17.927 13.623-17.927 30.427c0 16.804 8.026 30.426 17.927 30.426zm42.482 2.929l-41.026 3.475m0-73.661l40.798 3.445" stroke="#fff" stroke-width="3" stroke-miterlimit="10"/><path d="M163.307 216.081l2.033 5.281 5.293 2.034-5.293 2.033-2.033 5.296-2.032-5.281-5.278-2.048 5.278-2.034 2.032-5.281zM40.602 70.085l2.032 5.296 5.293 2.034-5.293 2.033-2.032 5.296-2.033-5.296-5.278-2.033 5.278-2.034 2.033-5.296zm141.62-7.078l2.033 5.28 5.278 2.05-5.278 2.033-2.033 5.281-2.047-5.281-5.278-2.034 5.293-2.048 2.032-5.281zM298.657 194.67l2.032 5.296 5.278 2.034-5.278 2.033-2.032 5.296-2.032-5.296-5.293-2.033 5.293-2.034 2.032-5.296z" fill="#F12052"/><path d="M254.686 228.448h-1.244v55.42h1.244v-55.42z" fill="#fff"/><path d="M281.767 256.779v-1.245h-55.389v1.245h55.389z" fill="#fff"/><path d="M234.917 236.129l-.88.88 39.165 39.187.88-.879-39.165-39.188z" fill="#fff"/><path d="M274.09 236.998l-.88-.88-39.165 39.188.879.88 39.166-39.188z" fill="#fff"/><path d="M254.064 261.105a4.946 4.946 0 004.945-4.947 4.946 4.946 0 00-4.945-4.947 4.946 4.946 0 00-4.944 4.947 4.946 4.946 0 004.944 4.947z" fill="#fff"/><path d="M189.563 2.822v25.13a4.387 4.387 0 004.383 4.386h50.141a4.387 4.387 0 014.384 4.386V65.04a4.386 4.386 0 004.383 4.386h49.109" stroke="#fff" stroke-width="3" stroke-miterlimit="10"/><path d="M189.563 4.901a2.078 2.078 0 100-4.156 2.078 2.078 0 000 4.156zm112.37 66.605a2.078 2.078 0 100-4.157 2.078 2.078 0 000 4.157z" fill="#fff"/><path d="M2.336 214.024h19.61a4.746 4.746 0 014.748 4.75v16.253a4.746 4.746 0 004.747 4.75h49.398a4.746 4.746 0 014.747 4.75v27.588a4.746 4.746 0 004.747 4.75h82.765" stroke="#fff" stroke-width="3" stroke-miterlimit="10"/><path d="M2.336 216.103a2.078 2.078 0 100-4.156 2.078 2.078 0 000 4.156zm170.746 62.827a2.079 2.079 0 10-.001-4.16 2.079 2.079 0 00.001 4.16z" fill="#fff"/></svg>