<svg width="24" height="24" fill="none" xmlns="http://www.w3.org/2000/svg"><path fill-rule="evenodd" clip-rule="evenodd" d="M19.281 3.88l.253-.07c.721-.197 1.338-.366 1.99-.681a1 1 0 011.476.88 1 1 0 01-.036.268c-.193.751-.7 1.783-1.098 2.564l-.284.552c-.099.191-.188.363-.267.52a9.184 9.184 0 00-.133.274 14.841 14.841 0 01-.533 3.853l-.001.005c-1.228 4.37-4.442 7.3-8.335 8.432-3.436.997-7.315.295-10.791-1.6A1 1 0 012.039 17c1.406.055 2.655-.298 3.91-.942-1.299-.802-2.231-1.737-2.87-2.747-.883-1.394-1.16-2.857-1.147-4.16.013-1.294.311-2.447.599-3.266a10.695 10.695 0 01.536-1.261l.042-.079.013-.023.004-.008.001-.003.001-.001L4 5l-.871-.491a1 1 0 011.684-.092C6.3 6.493 8.495 7.763 11 7.972c-.012-2.105 1.313-3.913 3.27-4.646 1.624-.608 3.546-.679 5.011.554zM4.301 6.906a8.102 8.102 0 00-.37 2.266c-.01 1.001.202 2.066.837 3.069.634 1 1.736 2.015 3.632 2.842a1 1 0 01.155 1.749c-.952.634-1.933 1.188-2.986 1.578 2.155.63 4.29.696 6.186.146M4.3 6.906c2.014 2.041 4.737 3.17 7.726 3.093a1 1 0 00.974-1V7.986c-.017-1.232.746-2.329 1.97-2.787 1.391-.52 2.544-.368 3.282.464a1 1 0 001.031.295c.208-.061.428-.12.655-.183l.262-.072a42.094 42.094 0 01-.386.754c-.106.206-.206.4-.285.558a9.089 9.089 0 00-.198.412 2.61 2.61 0 00-.079.2l-.001.004c-.015.042-.07.203-.069.396a12.838 12.838 0 01-.46 3.48c-1.031 3.666-3.7 6.1-6.967 7.049" fill="#1F2025"/></svg>