<svg width="20" height="20" fill="none" xmlns="http://www.w3.org/2000/svg"><path fill-rule="evenodd" clip-rule="evenodd" d="M9.167 3.334a.833.833 0 100 1.666h1.666a.833.833 0 000-1.666H9.167zm-2.358 0a2.501 2.501 0 012.358-1.667h1.666c1.089 0 2.015.696 2.358 1.667h.976a2.5 2.5 0 012.5 2.5v10a2.5 2.5 0 01-2.5 2.5H5.833a2.5 2.5 0 01-2.5-2.5v-10a2.5 2.5 0 012.5-2.5h.976zm0 1.666h-.976A.833.833 0 005 5.834v10a.833.833 0 00.833.833h8.334a.833.833 0 00.833-.833v-10A.834.834 0 0014.167 5h-.976a2.501 2.501 0 01-2.358 1.667H9.167A2.501 2.501 0 016.809 5zM7.5 9.167c.46 0 .833.373.833.833v4.167a.833.833 0 01-1.666 0V10c0-.46.373-.833.833-.833zm5 1.667c.46 0 .833.373.833.833v2.5a.833.833 0 01-1.666 0v-2.5c0-.46.373-.833.833-.833zM10 12.5c.46 0 .833.373.833.834v.833a.833.833 0 01-1.666 0v-.833c0-.46.373-.834.833-.834z" fill="#fff"/></svg>