<svg width="24" height="24" fill="none" xmlns="http://www.w3.org/2000/svg"><path fill-rule="evenodd" clip-rule="evenodd" d="M11.62 2.007a10.17 10.17 0 01.76 0 .982.982 0 01.346.02A9.998 9.998 0 0122 12c0 5.279-4.09 9.602-9.274 9.974-.113.026-.23.033-.347.02a10.171 10.171 0 01-.758 0 1.001 1.001 0 01-.348-.02C6.09 21.602 2 17.28 2 12c0-5.278 4.09-9.602 9.274-9.974a1.01 1.01 0 01.347-.019zm2.755 17.635A8.021 8.021 0 0018.93 16h-3.302a17.997 17.997 0 01-1.253 3.642zM13.57 16A15.999 15.999 0 0112 19.885 15.999 15.999 0 0110.43 16h3.14zm2.396-2h3.782A8 8 0 0020 12a8 8 0 00-.252-2h-3.782a17.98 17.98 0 010 4zm-2.014-4a16 16 0 010 4h-3.904a15.992 15.992 0 010-4h3.904zm1.676-2h3.302a8.021 8.021 0 00-4.555-3.641A17.998 17.998 0 0115.628 8zM13.57 8h-3.14A16.02 16.02 0 0112 4.115 15.998 15.998 0 0113.57 8zM9.625 4.36A8.021 8.021 0 005.07 8h3.302a18 18 0 011.253-3.64zM8.034 10H4.252A8.015 8.015 0 004 12c0 .69.088 1.36.252 2h3.782a17.997 17.997 0 010-4zm.338 6a18 18 0 001.253 3.642A8.021 8.021 0 015.07 16h3.302z" fill="#fff"/></svg>