<svg width="116" height="32" fill="none" xmlns="http://www.w3.org/2000/svg"><path fill-rule="evenodd" clip-rule="evenodd" d="M20.748 7.298c.725.83.644 2.093-.181 2.822L16.176 14l4.095 1.104a2.006 2.006 0 01.798 3.434l-7.183 6.347a1.982 1.982 0 01-2.807-.182 2.008 2.008 0 01.181-2.822L15.651 18l-4.095-1.104a1.995 1.995 0 01-1.422-1.477 2.006 2.006 0 01.624-1.957l7.183-6.347a1.982 1.982 0 012.807.182z" fill="#205BF1"/><path d="M45.455 25.252l-1.599-1.848a9.41 9.41 0 01-2.34 1.164 8.06 8.06 0 01-2.577.42c-1.138 0-2.172-.224-3.103-.672a6.948 6.948 0 01-2.364-1.872 7.377 7.377 0 01-1.384-2.784c-.279-1.056-.334-2.184-.167-3.384a9.783 9.783 0 011.11-3.372 10.696 10.696 0 012.16-2.784 9.966 9.966 0 012.888-1.872 8.242 8.242 0 013.294-.684c1.138 0 2.169.228 3.092.684a6.762 6.762 0 012.363 1.872 7.377 7.377 0 011.384 2.784c.279 1.048.334 2.172.167 3.372a9.403 9.403 0 01-.775 2.676c-.382.84-.86 1.616-1.433 2.328l1.636 1.908-2.352 2.064zm-6.11-3.192c.461 0 .922-.068 1.384-.204.47-.144.907-.344 1.313-.6l-1.301-1.524 2.351-2.076 1.218 1.44c.31-.416.564-.864.763-1.344.2-.48.33-.972.394-1.476.112-.8.076-1.548-.107-2.244a4.86 4.86 0 00-.883-1.836 4.288 4.288 0 00-1.528-1.248 4.301 4.301 0 00-1.981-.456c-.74 0-1.452.152-2.137.456a6.606 6.606 0 00-1.873 1.26 7.445 7.445 0 00-1.409 1.836 6.436 6.436 0 00-.716 2.232 5.84 5.84 0 00.096 2.244 5.08 5.08 0 00.895 1.848c.413.528.919.944 1.515 1.248a4.499 4.499 0 002.005.444z" fill="url(#paint0_linear_28_3580)"/><path d="M49.752 20.308l1.05-7.56h2.913l-.955 6.792c-.056.472.004.904.179 1.296.175.384.437.692.788.924.358.224.767.336 1.229.336.47 0 .91-.112 1.325-.336.421-.232.771-.54 1.05-.924a2.8 2.8 0 00.525-1.296l.955-6.792h2.912l-1.659 12h-2.912l.131-1.092a5.559 5.559 0 01-1.611 1.032 4.806 4.806 0 01-1.862.372c-.867 0-1.631-.212-2.291-.636a4.034 4.034 0 01-1.468-1.716c-.319-.72-.418-1.52-.299-2.4z" fill="url(#paint1_linear_28_3580)"/><path d="M64.124 12.748h2.912l-1.67 12h-2.913l1.671-12zm1.695-1.548c-.43 0-.772-.14-1.027-.42-.254-.288-.35-.648-.286-1.08.064-.424.258-.78.585-1.068a1.705 1.705 0 011.146-.432c.413 0 .743.144.99.432.255.288.354.644.298 1.068a1.735 1.735 0 01-.584 1.08c-.319.28-.693.42-1.122.42z" fill="url(#paint2_linear_28_3580)"/><path d="M75.867 21.136l2.411 1.428a7.649 7.649 0 01-2.315 1.812 6.077 6.077 0 01-2.805.684c-1.098 0-2.06-.284-2.888-.852a5.182 5.182 0 01-1.838-2.28c-.398-.96-.517-2.02-.358-3.18.12-.88.386-1.7.8-2.46a7.81 7.81 0 011.575-2.016 7.263 7.263 0 012.088-1.368 6.046 6.046 0 012.387-.492c.98 0 1.85.228 2.614.684a4.945 4.945 0 011.814 1.836l-2.828 1.416a2.478 2.478 0 00-2.005-1.008c-.581 0-1.122.16-1.624.48a4.099 4.099 0 00-1.265 1.248 4.016 4.016 0 00-.644 1.68c-.08.6-.024 1.16.167 1.68.199.512.505.924.919 1.236.422.312.919.468 1.492.468.414 0 .82-.088 1.217-.264a3.88 3.88 0 001.086-.732z" fill="url(#paint3_linear_28_3580)"/><path d="M90.42 24.748h-3.354L85 20.032l-1.957 2.004-.37 2.712H79.76l2.507-18h2.912l-1.504 10.74 4.62-4.74h3.806l-4.774 4.908 3.091 7.092z" fill="url(#paint4_linear_28_3580)"/><path d="M93.822 12.748h2.912l-1.671 12h-2.912l1.67-12zm1.695-1.548c-.43 0-.772-.14-1.027-.42-.254-.288-.35-.648-.286-1.08a1.72 1.72 0 01.585-1.068 1.705 1.705 0 011.145-.432c.414 0 .744.144.99.432.255.288.355.644.3 1.068a1.736 1.736 0 01-.586 1.08c-.318.28-.692.42-1.121.42z" fill="url(#paint5_linear_28_3580)"/><path d="M105.594 15.676h-2.315l-1.265 9.072h-2.912l1.265-9.072H98.6l.406-2.928h1.766l.526-3.768h2.912l-.525 3.768H106l-.406 2.928z" fill="url(#paint6_linear_28_3580)"/><defs><linearGradient id="paint0_linear_28_3580" x1="30.954" y1="18.748" x2="106.543" y2="18.748" gradientUnits="userSpaceOnUse"><stop stop-color="#205BF1"/><stop offset=".708" stop-color="#fff"/></linearGradient><linearGradient id="paint1_linear_28_3580" x1="30.954" y1="18.748" x2="106.543" y2="18.748" gradientUnits="userSpaceOnUse"><stop stop-color="#205BF1"/><stop offset=".708" stop-color="#fff"/></linearGradient><linearGradient id="paint2_linear_28_3580" x1="30.954" y1="18.748" x2="106.543" y2="18.748" gradientUnits="userSpaceOnUse"><stop stop-color="#205BF1"/><stop offset=".708" stop-color="#fff"/></linearGradient><linearGradient id="paint3_linear_28_3580" x1="30.954" y1="18.748" x2="106.543" y2="18.748" gradientUnits="userSpaceOnUse"><stop stop-color="#205BF1"/><stop offset=".708" stop-color="#fff"/></linearGradient><linearGradient id="paint4_linear_28_3580" x1="30.954" y1="18.748" x2="106.543" y2="18.748" gradientUnits="userSpaceOnUse"><stop stop-color="#205BF1"/><stop offset=".708" stop-color="#fff"/></linearGradient><linearGradient id="paint5_linear_28_3580" x1="30.954" y1="18.748" x2="106.543" y2="18.748" gradientUnits="userSpaceOnUse"><stop stop-color="#205BF1"/><stop offset=".708" stop-color="#fff"/></linearGradient><linearGradient id="paint6_linear_28_3580" x1="30.954" y1="18.748" x2="106.543" y2="18.748" gradientUnits="userSpaceOnUse"><stop stop-color="#205BF1"/><stop offset=".708" stop-color="#fff"/></linearGradient></defs></svg>